<?xml version="1.0" encoding="UTF-8"?>
<!--Generator: Apple Native CoreSVG 232.5-->
<!DOCTYPE svg
PUBLIC "-//W3C//DTD SVG 1.1//EN"
       "http://www.w3.org/Graphics/SVG/1.1/DTD/svg11.dtd">
<svg version="1.1" xmlns="http://www.w3.org/2000/svg" xmlns:xlink="http://www.w3.org/1999/xlink" width="3300" height="2200">
 <!--glyph: "", point size: 100.0, font version: "19.2d2e1", template writer version: "128"-->
 <style>.monochrome-0 {-sfsymbols-motion-group:1}
.monochrome-1 {opacity:0.0;-sfsymbols-clear-behind:true;-sfsymbols-motion-group:0}

.multicolor-0:tintColor {-sfsymbols-motion-group:1}
.multicolor-1:white {-sfsymbols-motion-group:0}

.hierarchical-0:primary {-sfsymbols-motion-group:1}
.hierarchical-1:primary {opacity:0.0;-sfsymbols-clear-behind:true;-sfsymbols-motion-group:0}

.SFSymbolsPreviewWireframe {fill:none;opacity:1.0;stroke:black;stroke-width:0.5}
</style>
 <g id="Notes">
  <rect height="2200" id="artboard" style="fill:white;opacity:1" width="3300" x="0" y="0"/>
  <line style="fill:none;stroke:black;opacity:1;stroke-width:0.5;" x1="263" x2="3036" y1="292" y2="292"/>
  <text style="stroke:none;fill:black;font-family:sans-serif;font-size:13;font-weight:bold;" transform="matrix(1 0 0 1 263 322)">Weight/Scale Variations</text>
  <text style="stroke:none;fill:black;font-family:sans-serif;font-size:13;text-anchor:middle;" transform="matrix(1 0 0 1 559.711 322)">Ultralight</text>
  <text style="stroke:none;fill:black;font-family:sans-serif;font-size:13;text-anchor:middle;" transform="matrix(1 0 0 1 856.422 322)">Thin</text>
  <text style="stroke:none;fill:black;font-family:sans-serif;font-size:13;text-anchor:middle;" transform="matrix(1 0 0 1 1153.13 322)">Light</text>
  <text style="stroke:none;fill:black;font-family:sans-serif;font-size:13;text-anchor:middle;" transform="matrix(1 0 0 1 1449.84 322)">Regular</text>
  <text style="stroke:none;fill:black;font-family:sans-serif;font-size:13;text-anchor:middle;" transform="matrix(1 0 0 1 1746.56 322)">Medium</text>
  <text style="stroke:none;fill:black;font-family:sans-serif;font-size:13;text-anchor:middle;" transform="matrix(1 0 0 1 2043.27 322)">Semibold</text>
  <text style="stroke:none;fill:black;font-family:sans-serif;font-size:13;text-anchor:middle;" transform="matrix(1 0 0 1 2339.98 322)">Bold</text>
  <text style="stroke:none;fill:black;font-family:sans-serif;font-size:13;text-anchor:middle;" transform="matrix(1 0 0 1 2636.69 322)">Heavy</text>
  <text style="stroke:none;fill:black;font-family:sans-serif;font-size:13;text-anchor:middle;" transform="matrix(1 0 0 1 2933.4 322)">Black</text>
  <line style="fill:none;stroke:black;opacity:1;stroke-width:0.5;" x1="263" x2="3036" y1="1903" y2="1903"/>
  <g transform="matrix(0.2 0 0 0.2 263 1933)">
   <path d="m46.2402 4.15039c21.5332 0 39.4531-17.8711 39.4531-39.4043s-17.9688-39.4043-39.502-39.4043c-21.4844 0-39.3555 17.8711-39.3555 39.4043s17.9199 39.4043 39.4043 39.4043Zm0-7.42188c-17.7246 0-31.8848-14.209-31.8848-31.9824s14.1113-31.9824 31.8359-31.9824c17.7734 0 32.0312 14.209 32.0312 31.9824s-14.209 31.9824-31.9824 31.9824Zm-17.9688-31.9824c0 2.14844 1.51367 3.61328 3.75977 3.61328h10.498v10.5957c0 2.19727 1.46484 3.71094 3.61328 3.71094 2.24609 0 3.71094-1.51367 3.71094-3.71094v-10.5957h10.5957c2.19727 0 3.71094-1.46484 3.71094-3.61328 0-2.19727-1.51367-3.71094-3.71094-3.71094h-10.5957v-10.5469c0-2.24609-1.46484-3.75977-3.71094-3.75977-2.14844 0-3.61328 1.51367-3.61328 3.75977v10.5469h-10.498c-2.24609 0-3.75977 1.51367-3.75977 3.71094Z"/>
  </g>
  <g transform="matrix(0.2 0 0 0.2 281.506 1933)">
   <path d="m58.5449 14.5508c27.2461 0 49.8047-22.6074 49.8047-49.8047 0-27.2461-22.6074-49.8047-49.8535-49.8047-27.1973 0-49.7559 22.5586-49.7559 49.8047 0 27.1973 22.6074 49.8047 49.8047 49.8047Zm0-8.30078c-23.0469 0-41.4551-18.457-41.4551-41.5039s18.3594-41.5039 41.4062-41.5039 41.5527 18.457 41.5527 41.5039-18.457 41.5039-41.5039 41.5039Zm-22.6562-41.5039c0 2.39258 1.66016 4.00391 4.15039 4.00391h14.3555v14.4043c0 2.44141 1.66016 4.15039 4.05273 4.15039 2.44141 0 4.15039-1.66016 4.15039-4.15039v-14.4043h14.4043c2.44141 0 4.15039-1.61133 4.15039-4.00391 0-2.44141-1.70898-4.15039-4.15039-4.15039h-14.4043v-14.3555c0-2.49023-1.70898-4.19922-4.15039-4.19922-2.39258 0-4.05273 1.70898-4.05273 4.19922v14.3555h-14.3555c-2.49023 0-4.15039 1.70898-4.15039 4.15039Z"/>
  </g>
  <g transform="matrix(0.2 0 0 0.2 304.924 1933)">
   <path d="m74.8535 28.3203c34.8145 0 63.623-28.8086 63.623-63.5742 0-34.8145-28.8574-63.623-63.6719-63.623-34.7656 0-63.5254 28.8086-63.5254 63.623 0 34.7656 28.8086 63.5742 63.5742 63.5742Zm0-9.08203c-30.1758 0-54.4434-24.3164-54.4434-54.4922 0-30.2246 24.2188-54.4922 54.3945-54.4922 30.2246 0 54.541 24.2676 54.541 54.4922 0 30.1758-24.2676 54.4922-54.4922 54.4922Zm-28.8574-54.4922c0 2.58789 1.85547 4.39453 4.58984 4.39453h19.7266v19.7754c0 2.68555 1.85547 4.58984 4.44336 4.58984 2.68555 0 4.54102-1.85547 4.54102-4.58984v-19.7754h19.7754c2.68555 0 4.58984-1.80664 4.58984-4.39453 0-2.73438-1.85547-4.58984-4.58984-4.58984h-19.7754v-19.7266c0-2.73438-1.85547-4.63867-4.54102-4.63867-2.58789 0-4.44336 1.9043-4.44336 4.63867v19.7266h-19.7266c-2.73438 0-4.58984 1.85547-4.58984 4.58984Z"/>
  </g>
  <text style="stroke:none;fill:black;font-family:sans-serif;font-size:13;font-weight:bold;" transform="matrix(1 0 0 1 263 1953)">Design Variations</text>
  <text style="stroke:none;fill:black;font-family:sans-serif;font-size:13;" transform="matrix(1 0 0 1 263 1971)">Symbols are supported in up to nine weights and three scales.</text>
  <text style="stroke:none;fill:black;font-family:sans-serif;font-size:13;" transform="matrix(1 0 0 1 263 1989)">For optimal layout with text and other symbols, vertically align</text>
  <text style="stroke:none;fill:black;font-family:sans-serif;font-size:13;" transform="matrix(1 0 0 1 263 2007)">symbols with the adjacent text.</text>
  <line style="fill:none;stroke:#00AEEF;stroke-width:0.5;opacity:1.0;" x1="776" x2="776" y1="1919" y2="1933"/>
  <g transform="matrix(0.2 0 0 0.2 776 1933)">
   <path d="m16.5527 0.78125c2.58789 0 3.85742-0.976562 4.78516-3.71094l6.29883-17.2363h28.8086l6.29883 17.2363c0.927734 2.73438 2.19727 3.71094 4.73633 3.71094 2.58789 0 4.24805-1.5625 4.24805-4.00391 0-0.830078-0.146484-1.61133-0.537109-2.63672l-22.9004-60.9863c-1.12305-2.97852-3.125-4.49219-6.25-4.49219-3.02734 0-5.07812 1.46484-6.15234 4.44336l-22.9004 61.084c-0.390625 1.02539-0.537109 1.80664-0.537109 2.63672 0 2.44141 1.5625 3.95508 4.10156 3.95508Zm13.4766-28.3691 11.8652-32.8613h0.244141l11.8652 32.8613Z"/>
  </g>
  <line style="fill:none;stroke:#00AEEF;stroke-width:0.5;opacity:1.0;" x1="792.836" x2="792.836" y1="1919" y2="1933"/>
  <text style="stroke:none;fill:black;font-family:sans-serif;font-size:13;font-weight:bold;" transform="matrix(1 0 0 1 776 1953)">Margins</text>
  <text style="stroke:none;fill:black;font-family:sans-serif;font-size:13;" transform="matrix(1 0 0 1 776 1971)">Leading and trailing margins on the left and right side of each symbol</text>
  <text style="stroke:none;fill:black;font-family:sans-serif;font-size:13;" transform="matrix(1 0 0 1 776 1989)">can be adjusted by modifying the x-location of the margin guidelines.</text>
  <text style="stroke:none;fill:black;font-family:sans-serif;font-size:13;" transform="matrix(1 0 0 1 776 2007)">Modifications are automatically applied proportionally to all</text>
  <text style="stroke:none;fill:black;font-family:sans-serif;font-size:13;" transform="matrix(1 0 0 1 776 2025)">scales and weights.</text>
  <g transform="matrix(0.2 0 0 0.2 1289 1933)">
   <path d="m14.209 9.32617 8.49609 8.54492c4.29688 4.3457 9.22852 4.05273 13.8672-1.07422l53.4668-58.9355-4.83398-4.88281-53.0762 58.3984c-1.75781 2.00195-3.41797 2.49023-5.76172 0.146484l-5.85938-5.81055c-2.34375-2.29492-1.80664-4.00391 0.195312-5.81055l57.373-54.0039-4.88281-4.83398-57.959 54.4434c-4.93164 4.58984-5.32227 9.47266-1.02539 13.8184Zm32.0801-90.9668c-2.09961 2.05078-2.24609 4.93164-1.07422 6.88477 1.17188 1.80664 3.4668 2.97852 6.68945 2.14844 7.32422-1.70898 14.9414-2.00195 22.0703 2.68555l-2.92969 7.27539c-1.70898 4.15039-0.830078 7.08008 1.85547 9.81445l11.4746 11.5723c2.44141 2.44141 4.49219 2.53906 7.32422 2.05078l5.32227-0.976562 3.32031 3.36914-0.195312 2.7832c-0.195312 2.49023 0.439453 4.39453 2.88086 6.78711l3.80859 3.71094c2.39258 2.39258 5.46875 2.53906 7.8125 0.195312l14.5508-14.5996c2.34375-2.34375 2.24609-5.32227-0.146484-7.71484l-3.85742-3.80859c-2.39258-2.39258-4.24805-3.17383-6.64062-2.97852l-2.88086 0.244141-3.22266-3.17383 1.2207-5.61523c0.634766-2.83203-0.146484-5.0293-3.07617-7.95898l-10.9863-10.9375c-16.6992-16.6016-38.8672-16.2109-53.3203-1.75781Zm7.4707 1.85547c12.1582-8.88672 28.6133-7.37305 39.7461 3.75977l12.1582 12.0605c1.17188 1.17188 1.36719 2.09961 1.02539 3.80859l-1.61133 7.42188 7.51953 7.42188 4.93164-0.292969c1.26953-0.0488281 1.66016 0.0488281 2.63672 1.02539l2.88086 2.88086-12.207 12.207-2.88086-2.88086c-0.976562-0.976562-1.12305-1.36719-1.07422-2.68555l0.341797-4.88281-7.4707-7.42188-7.61719 1.26953c-1.61133 0.341797-2.34375 0.195312-3.56445-0.976562l-10.0098-10.0098c-1.26953-1.17188-1.41602-2.00195-0.634766-3.85742l4.39453-10.4492c-7.8125-7.27539-17.9688-10.4004-28.125-7.42188-0.78125 0.195312-1.07422-0.439453-0.439453-0.976562Z"/>
  </g>
  <text style="stroke:none;fill:black;font-family:sans-serif;font-size:13;font-weight:bold;" transform="matrix(1 0 0 1 1289 1953)">Exporting</text>
  <text style="stroke:none;fill:black;font-family:sans-serif;font-size:13;" transform="matrix(1 0 0 1 1289 1971)">Symbols should be outlined when exporting to ensure the</text>
  <text style="stroke:none;fill:black;font-family:sans-serif;font-size:13;" transform="matrix(1 0 0 1 1289 1989)">design is preserved when submitting to Xcode.</text>
  <text id="template-version" style="stroke:none;fill:black;font-family:sans-serif;font-size:13;text-anchor:end;" transform="matrix(1 0 0 1 3036 1933)">Template v.5.0</text>
  <text style="stroke:none;fill:black;font-family:sans-serif;font-size:13;text-anchor:end;" transform="matrix(1 0 0 1 3036 1951)">Requires Xcode 15 or greater</text>
  <text id="descriptive-name" style="stroke:none;fill:black;font-family:sans-serif;font-size:13;text-anchor:end;" transform="matrix(1 0 0 1 3036 1969)">Generated from truck.box.circle.fill</text>
  <text style="stroke:none;fill:black;font-family:sans-serif;font-size:13;text-anchor:end;" transform="matrix(1 0 0 1 3036 1987)">Typeset at 100.0 points</text>
  <text style="stroke:none;fill:black;font-family:sans-serif;font-size:13;" transform="matrix(1 0 0 1 263 726)">Small</text>
  <text style="stroke:none;fill:black;font-family:sans-serif;font-size:13;" transform="matrix(1 0 0 1 263 1156)">Medium</text>
  <text style="stroke:none;fill:black;font-family:sans-serif;font-size:13;" transform="matrix(1 0 0 1 263 1586)">Large</text>
 </g>
 <g id="Guides">
  <g id="H-reference" style="fill:#27AAE1;stroke:none;" transform="matrix(1 0 0 1 339 696)">
   <path d="M0.993654 0L3.63775 0L29.3281-67.1323L30.0303-67.1323L30.0303-70.459L28.1226-70.459ZM11.6885-24.4799L46.9815-24.4799L46.2315-26.7285L12.4385-26.7285ZM55.1196 0L57.7637 0L30.6382-70.459L29.4326-70.459L29.4326-67.1323Z"/>
  </g>
  <line id="Baseline-S" style="fill:none;stroke:#27AAE1;opacity:1;stroke-width:0.5;" x1="263" x2="3036" y1="696" y2="696"/>
  <line id="Capline-S" style="fill:none;stroke:#27AAE1;opacity:1;stroke-width:0.5;" x1="263" x2="3036" y1="625.541" y2="625.541"/>
  <g id="H-reference" style="fill:#27AAE1;stroke:none;" transform="matrix(1 0 0 1 339 1126)">
   <path d="M0.993654 0L3.63775 0L29.3281-67.1323L30.0303-67.1323L30.0303-70.459L28.1226-70.459ZM11.6885-24.4799L46.9815-24.4799L46.2315-26.7285L12.4385-26.7285ZM55.1196 0L57.7637 0L30.6382-70.459L29.4326-70.459L29.4326-67.1323Z"/>
  </g>
  <line id="Baseline-M" style="fill:none;stroke:#27AAE1;opacity:1;stroke-width:0.5;" x1="263" x2="3036" y1="1126" y2="1126"/>
  <line id="Capline-M" style="fill:none;stroke:#27AAE1;opacity:1;stroke-width:0.5;" x1="263" x2="3036" y1="1055.54" y2="1055.54"/>
  <g id="H-reference" style="fill:#27AAE1;stroke:none;" transform="matrix(1 0 0 1 339 1556)">
   <path d="M0.993654 0L3.63775 0L29.3281-67.1323L30.0303-67.1323L30.0303-70.459L28.1226-70.459ZM11.6885-24.4799L46.9815-24.4799L46.2315-26.7285L12.4385-26.7285ZM55.1196 0L57.7637 0L30.6382-70.459L29.4326-70.459L29.4326-67.1323Z"/>
  </g>
  <line id="Baseline-L" style="fill:none;stroke:#27AAE1;opacity:1;stroke-width:0.5;" x1="263" x2="3036" y1="1556" y2="1556"/>
  <line id="Capline-L" style="fill:none;stroke:#27AAE1;opacity:1;stroke-width:0.5;" x1="263" x2="3036" y1="1485.54" y2="1485.54"/>
  <line id="left-margin-Ultralight-S" style="fill:none;stroke:#00AEEF;stroke-width:0.5;opacity:1.0;" x1="515.649" x2="515.649" y1="600.785" y2="720.121"/>
  <line id="right-margin-Ultralight-S" style="fill:none;stroke:#00AEEF;stroke-width:0.5;opacity:1.0;" x1="603.773" x2="603.773" y1="600.785" y2="720.121"/>
  <line id="left-margin-Regular-S" style="fill:none;stroke:#00AEEF;stroke-width:0.5;opacity:1.0;" x1="1403.58" x2="1403.58" y1="600.785" y2="720.121"/>
  <line id="right-margin-Regular-S" style="fill:none;stroke:#00AEEF;stroke-width:0.5;opacity:1.0;" x1="1496.11" x2="1496.11" y1="600.785" y2="720.121"/>
  <line id="left-margin-Black-S" style="fill:none;stroke:#00AEEF;stroke-width:0.5;opacity:1.0;" x1="2884.57" x2="2884.57" y1="600.785" y2="720.121"/>
  <line id="right-margin-Black-S" style="fill:none;stroke:#00AEEF;stroke-width:0.5;opacity:1.0;" x1="2982.23" x2="2982.23" y1="600.785" y2="720.121"/>
 </g>
 <g id="Symbols">
  <g id="Black-S" transform="matrix(1 0 0 1 2884.57 696)">
   <path class="monochrome-0 multicolor-0:tintColor hierarchical-0:primary SFSymbolsPreviewWireframe" d="M48.83 6.836C71.97 6.836 90.82-12.012 90.82-35.156C90.82-58.301 71.97-77.148 48.83-77.148C25.68-77.148 6.84-58.301 6.84-35.156C6.84-12.012 25.68 6.836 48.83 6.836Z"/>
   <path class="monochrome-0 monochrome-1 multicolor-0:tintColor multicolor-1:white hierarchical-0:primary hierarchical-1:primary SFSymbolsPreviewWireframe" d="M38.0122-17.015C40.6223-17.015 42.7281-19.1217 42.7281-21.7345C42.7281-24.3252 40.5958-26.4531 38.0122-26.4531C35.4197-26.4531 33.2874-24.3252 33.2874-21.7345C33.2874-19.1429 35.4197-17.015 38.0122-17.015ZM61.6274-17.015C64.2552-17.015 66.3433-19.1217 66.3433-21.7548C66.3433-24.3464 64.2375-26.4743 61.6274-26.4743C59.0349-26.4743 56.9291-24.3464 56.9291-21.7548C56.9291-19.1429 59.0349-17.015 61.6274-17.015ZM56.6991-26.4531L56.6991-47.3519C56.6991-50.3434 55.1595-51.8812 52.1689-51.8812L30.111-51.8812C27.1381-51.8812 25.5808-50.3434 25.5808-47.3519L25.5808-25.4418C25.5808-22.4715 27.1381-20.9125 30.111-20.9125L31.2877-20.9125C31.2612-21.1656 31.2435-21.4602 31.2435-21.7345C31.2435-25.463 34.2783-28.497 38.0122-28.497C41.7372-28.497 44.7897-25.463 44.7897-21.7345C44.7897-21.4602 44.772-21.1656 44.7278-20.9125L54.9295-20.9125C54.8852-21.1859 54.8587-21.4814 54.8587-21.7548C54.8587-23.5881 55.5134-25.2524 56.6991-26.4531ZM59.1588-42.8014L59.1588-28.0546C59.8932-28.3492 60.6983-28.5182 61.5389-28.5182C65.2904-28.5182 68.4049-25.4842 68.4049-21.7548C68.4049-21.4814 68.3872-21.1859 68.343-20.9125L69.502-20.9125C72.4749-20.9125 74.0145-22.4715 74.0145-25.4418L74.0145-31.3619C74.0145-33.1103 73.7844-33.827 72.8112-34.9223L67.1839-41.2637C66.1575-42.4228 65.0604-42.8014 63.3704-42.8014L59.1588-42.8014ZM63.6889-32.0786C62.6537-32.0786 62.0432-32.6891 62.0432-33.7217L62.0432-39.6622L63.2023-39.6622C63.9632-39.6622 64.4941-39.5569 65.1842-38.7774L70.2453-33.1103C70.493-32.8157 70.6877-32.4573 70.7673-32.0786L63.6889-32.0786Z"/>
  </g>
  <g id="Regular-S" transform="matrix(1 0 0 1 1403.58 696)">
   <path class="monochrome-0 multicolor-0:tintColor hierarchical-0:primary SFSymbolsPreviewWireframe" d="M46.24 4.199C67.77 4.199 85.69-13.672 85.69-35.205C85.69-56.738 67.73-74.609 46.19-74.609C24.71-74.609 6.84-56.738 6.84-35.205C6.84-13.672 24.76 4.199 46.24 4.199Z"/>
   <path class="monochrome-0 monochrome-1 multicolor-0:tintColor multicolor-1:white hierarchical-0:primary hierarchical-1:primary SFSymbolsPreviewWireframe" d="M34.4822-17.015C37.0923-17.015 39.1981-19.1217 39.1981-21.7345C39.1981-24.3252 37.0658-26.4531 34.4822-26.4531C31.8897-26.4531 29.7574-24.3252 29.7574-21.7345C29.7574-19.1429 31.8897-17.015 34.4822-17.015ZM58.0974-17.015C60.7252-17.015 62.8133-19.1217 62.8133-21.7548C62.8133-24.3464 60.7075-26.4743 58.0974-26.4743C55.5049-26.4743 53.3991-24.3464 53.3991-21.7548C53.3991-19.1429 55.5049-17.015 58.0974-17.015ZM53.1691-26.4531L53.1691-47.3519C53.1691-50.3434 51.6295-51.8812 48.6389-51.8812L26.581-51.8812C23.6081-51.8812 22.0508-50.3434 22.0508-47.3519L22.0508-25.4418C22.0508-22.4715 23.6081-20.9125 26.581-20.9125L27.7577-20.9125C27.7312-21.1656 27.7135-21.4602 27.7135-21.7345C27.7135-25.463 30.7483-28.497 34.4822-28.497C38.2072-28.497 41.2597-25.463 41.2597-21.7345C41.2597-21.4602 41.242-21.1656 41.1978-20.9125L51.3995-20.9125C51.3552-21.1859 51.3287-21.4814 51.3287-21.7548C51.3287-23.5881 51.9834-25.2524 53.1691-26.4531ZM55.6288-42.8014L55.6288-28.0546C56.3632-28.3492 57.1683-28.5182 58.0089-28.5182C61.7604-28.5182 64.8749-25.4842 64.8749-21.7548C64.8749-21.4814 64.8572-21.1859 64.813-20.9125L65.972-20.9125C68.9449-20.9125 70.4845-22.4715 70.4845-25.4418L70.4845-31.3619C70.4845-33.1103 70.2544-33.827 69.2812-34.9223L63.6539-41.2637C62.6275-42.4228 61.5304-42.8014 59.8404-42.8014L55.6288-42.8014ZM60.1589-32.0786C59.1237-32.0786 58.5132-32.6891 58.5132-33.7217L58.5132-39.6622L59.6723-39.6622C60.4332-39.6622 60.9641-39.5569 61.6542-38.7774L66.7153-33.1103C66.963-32.8157 67.1577-32.4573 67.2373-32.0786L60.1589-32.0786Z"/>
  </g>
  <g id="Ultralight-S" transform="matrix(1 0 0 1 515.649 696)">
   <path class="monochrome-0 multicolor-0:tintColor hierarchical-0:primary SFSymbolsPreviewWireframe" d="M44.061 2.02C64.504 2.02 81.289-14.762 81.289-35.205C81.289-55.648 64.501-72.43 44.057-72.43C23.572-72.43 6.836-55.648 6.836-35.205C6.836-14.762 23.575 2.02 44.061 2.02Z"/>
   <path class="monochrome-0 monochrome-1 multicolor-0:tintColor multicolor-1:white hierarchical-0:primary hierarchical-1:primary SFSymbolsPreviewWireframe" d="M32.7122-17.015C35.3223-17.015 37.4281-19.1217 37.4281-21.7345C37.4281-24.3252 35.2958-26.4531 32.7122-26.4531C30.1197-26.4531 27.9874-24.3252 27.9874-21.7345C27.9874-19.1429 30.1197-17.015 32.7122-17.015ZM56.3274-17.015C58.9552-17.015 61.0433-19.1217 61.0433-21.7548C61.0433-24.3464 58.9375-26.4743 56.3274-26.4743C53.7349-26.4743 51.6291-24.3464 51.6291-21.7548C51.6291-19.1429 53.7349-17.015 56.3274-17.015ZM51.3991-26.4531L51.3991-47.3519C51.3991-50.3434 49.8595-51.8812 46.8689-51.8812L24.811-51.8812C21.8381-51.8812 20.2808-50.3434 20.2808-47.3519L20.2808-25.4418C20.2808-22.4715 21.8381-20.9125 24.811-20.9125L25.9877-20.9125C25.9612-21.1656 25.9435-21.4602 25.9435-21.7345C25.9435-25.463 28.9783-28.497 32.7122-28.497C36.4372-28.497 39.4897-25.463 39.4897-21.7345C39.4897-21.4602 39.472-21.1656 39.4278-20.9125L49.6295-20.9125C49.5852-21.1859 49.5587-21.4814 49.5587-21.7548C49.5587-23.5881 50.2134-25.2524 51.3991-26.4531ZM53.8588-42.8014L53.8588-28.0546C54.5932-28.3492 55.3983-28.5182 56.2389-28.5182C59.9904-28.5182 63.1049-25.4842 63.1049-21.7548C63.1049-21.4814 63.0872-21.1859 63.043-20.9125L64.202-20.9125C67.1749-20.9125 68.7145-22.4715 68.7145-25.4418L68.7145-31.3619C68.7145-33.1103 68.4844-33.827 67.5112-34.9223L61.8839-41.2637C60.8575-42.4228 59.7604-42.8014 58.0704-42.8014L53.8588-42.8014ZM58.3889-32.0786C57.3537-32.0786 56.7432-32.6891 56.7432-33.7217L56.7432-39.6622L57.9023-39.6622C58.6632-39.6622 59.1941-39.5569 59.8842-38.7774L64.9453-33.1103C65.193-32.8157 65.3877-32.4573 65.4673-32.0786L58.3889-32.0786Z"/>
  </g>
 </g>
</svg>
