<?xml version="1.0" encoding="UTF-8" standalone="no"?>
<!DOCTYPE svg PUBLIC "-//W3C//DTD SVG 1.1//EN" "http://www.w3.org/Graphics/SVG/1.1/DTD/svg11.dtd">
<svg width="100%" height="100%" viewBox="0 0 703 438" version="1.1" xmlns="http://www.w3.org/2000/svg" xmlns:xlink="http://www.w3.org/1999/xlink" xml:space="preserve" xmlns:serif="http://www.serif.com/" style="fill-rule:evenodd;clip-rule:evenodd;stroke-linejoin:round;stroke-miterlimit:2;">
    <g id="Artboard1" transform="matrix(0.686433,0,0,0.427161,0,0)">
        <rect x="0" y="0" width="1024" height="1024" style="fill:none;"/>
        <g transform="matrix(17.018,0,0,27.3473,-5509.76,-19131.5)">
            <path d="M327.059,734.086L328.828,734.086L328.828,731.42L330.457,731.42C332.238,731.42 333.428,730.272 333.428,728.532L333.428,728.52C333.428,726.78 332.238,725.631 330.457,725.631L327.059,725.631L327.059,734.086ZM330.024,727.032C331.037,727.032 331.635,727.565 331.635,728.526L331.635,728.538C331.635,729.499 331.037,730.038 330.024,730.038L328.828,730.038L328.828,727.032L330.024,727.032Z" style="fill:white;fill-rule:nonzero;"/>
            <path d="M336.979,734.215C338.772,734.215 339.639,733.155 339.832,732.229L339.85,732.165L338.279,732.165L338.268,732.2C338.145,732.551 337.717,732.938 337.014,732.938C336.141,732.938 335.596,732.352 335.578,731.35L339.902,731.35L339.902,730.823C339.902,728.924 338.748,727.676 336.908,727.676C335.068,727.676 333.891,728.954 333.891,730.952L333.891,730.958C333.891,732.967 335.057,734.215 336.979,734.215ZM336.938,728.954C337.647,728.954 338.156,729.405 338.262,730.272L335.596,730.272C335.707,729.422 336.234,728.954 336.938,728.954Z" style="fill:white;fill-rule:nonzero;"/>
            <path d="M340.781,734.086L342.492,734.086L342.492,730.477C342.492,729.657 342.979,729.094 343.746,729.094C344.514,729.094 344.9,729.563 344.9,730.383L344.9,734.086L346.611,734.086L346.611,730.032C346.611,728.561 345.826,727.676 344.443,727.676C343.494,727.676 342.85,728.116 342.527,728.836L342.492,728.836L342.492,727.805L340.781,727.805L340.781,734.086Z" style="fill:white;fill-rule:nonzero;"/>
            <path d="M350.022,734.215C350.93,734.215 351.621,733.758 351.955,733.014L351.99,733.014L351.99,734.086L353.701,734.086L353.701,725.631L351.99,725.631L351.99,728.895L351.955,728.895C351.615,728.133 350.912,727.676 350.022,727.676C348.44,727.676 347.467,728.895 347.467,730.94L347.467,730.946C347.467,732.985 348.44,734.215 350.022,734.215ZM350.596,732.797C349.74,732.797 349.207,732.088 349.207,730.946L349.207,730.94C349.207,729.792 349.746,729.094 350.596,729.094C351.422,729.094 351.996,729.809 351.996,730.94L351.996,730.946C351.996,732.083 351.428,732.797 350.596,732.797Z" style="fill:white;fill-rule:nonzero;"/>
            <path d="M356.982,734.215C357.932,734.215 358.576,733.77 358.899,733.049L358.934,733.049L358.934,734.086L360.645,734.086L360.645,727.805L358.934,727.805L358.934,731.415C358.934,732.235 358.447,732.797 357.68,732.797C356.912,732.797 356.525,732.323 356.525,731.502L356.525,727.805L354.815,727.805L354.815,731.86C354.815,733.331 355.6,734.215 356.982,734.215Z" style="fill:white;fill-rule:nonzero;"/>
            <rect x="361.799" y="725.631" width="1.711" height="8.455" style="fill:white;fill-rule:nonzero;"/>
            <path d="M366.803,734.215C367.752,734.215 368.397,733.77 368.719,733.049L368.754,733.049L368.754,734.086L370.465,734.086L370.465,727.805L368.754,727.805L368.754,731.415C368.754,732.235 368.268,732.797 367.5,732.797C366.732,732.797 366.346,732.323 366.346,731.502L366.346,727.805L364.635,727.805L364.635,731.86C364.635,733.331 365.42,734.215 366.803,734.215Z" style="fill:white;fill-rule:nonzero;"/>
            <path d="M371.578,734.086L373.289,734.086L373.289,730.295C373.289,729.586 373.729,729.094 374.379,729.094C375.012,729.094 375.393,729.493 375.393,730.167L375.393,734.086L377.039,734.086L377.039,730.266C377.039,729.569 377.467,729.094 378.117,729.094C378.779,729.094 379.143,729.493 379.143,730.219L379.143,734.086L380.854,734.086L380.854,729.792C380.854,728.526 380.027,727.676 378.797,727.676C377.877,727.676 377.127,728.18 376.846,728.971L376.811,728.971C376.6,728.145 375.961,727.676 375.082,727.676C374.238,727.676 373.582,728.145 373.324,728.86L373.289,728.86L373.289,727.805L371.578,727.805L371.578,734.086Z" style="fill:white;fill-rule:nonzero;"/>
        </g>
        <g transform="matrix(0.416852,0,0,0.669865,300.426,-4.98293)">
            <g>
                <g transform="matrix(0.74817,0,0,0.74817,98.3516,-236.17)">
                    <path d="M568.651,437.773C566.983,436.929 565.001,438.145 565.001,440.016L565,521.088C565,522.958 566.983,524.175 568.651,523.33C584.272,515.419 595,499.261 595,480.552C595,461.842 584.273,445.685 568.651,437.773Z" style="fill:white;fill-rule:nonzero;"/>
                </g>
                <g transform="matrix(0.74817,0,0,0.74817,102.661,-236.17)">
                    <path d="M535,440.016C535,438.145 533.017,436.929 531.35,437.773C515.728,445.685 505,461.842 505,480.552C505,499.261 515.728,515.419 531.35,523.33C533.018,524.175 535,522.958 535,521.088L535,440.016Z" style="fill:white;fill-rule:nonzero;"/>
                </g>
            </g>
            <g transform="matrix(0.600868,0,0,0.74817,181.523,-236.17)">
                <path d="M794.783,1558.1C757.698,1526.57 730.089,1496.5 732.843,1446.51C732.962,1444.34 731.281,1442.5 729.109,1442.5L370.891,1442.5C368.719,1442.5 367.039,1444.34 367.158,1446.51C369.911,1496.5 342.302,1526.57 305.217,1558.1C303.45,1559.61 304.523,1562.5 306.843,1562.5L793.157,1562.5C795.478,1562.5 796.551,1559.61 794.783,1558.1Z" style="fill:white;fill-rule:nonzero;"/>
            </g>
            <path d="M521.048,461.912L521.048,102.377C587.666,331.041 719.005,489.591 736.305,509.809C737.395,511.082 737.546,513.145 736.685,514.663C655.701,657.579 629.798,793.14 625.707,816.939C625.337,819.094 623.802,820.62 622.023,820.62L401.977,820.62C400.199,820.62 398.664,819.094 398.293,816.939C394.202,793.14 368.299,657.579 287.316,514.663C286.454,513.145 286.604,511.082 287.695,509.808C304.996,489.59 436.334,331.041 502.952,102.377L502.952,461.912C453.068,466.487 413.949,508.486 413.949,559.55C413.949,613.666 457.884,657.601 512,657.601C566.116,657.601 610.051,613.666 610.051,559.55C610.051,508.486 570.932,466.487 521.048,461.912Z" style="fill:white;fill-rule:nonzero;"/>
        </g>
    </g>
</svg>
